<mxfile host="app.diagrams.net" modified="2021-10-01T07:53:21.882Z" agent="5.0 (Windows NT 10.0; Win64; x64) AppleWebKit/537.36 (KHTML, like Gecko) Chrome/92.0.4515.159 YaBrowser/21.8.3.614 Yowser/2.5 Safari/537.36" etag="uJrS-ngXnahdd6BiTkAl" version="15.4.0" type="github">
  <diagram id="h5Rzz-T3WpcVaIcprmfy" name="Page-1">
    <mxGraphModel dx="868" dy="477" grid="1" gridSize="10" guides="1" tooltips="1" connect="1" arrows="1" fold="1" page="1" pageScale="1" pageWidth="827" pageHeight="1169" math="0" shadow="0">
      <root>
        <mxCell id="0" />
        <mxCell id="1" parent="0" />
        <mxCell id="-s_Bi2IsMXYIWPhoc3tg-35" style="edgeStyle=orthogonalEdgeStyle;rounded=0;orthogonalLoop=1;jettySize=auto;html=1;exitX=0.5;exitY=1;exitDx=0;exitDy=0;entryX=0.5;entryY=0;entryDx=0;entryDy=0;" parent="1" source="-s_Bi2IsMXYIWPhoc3tg-13" target="-s_Bi2IsMXYIWPhoc3tg-21" edge="1">
          <mxGeometry relative="1" as="geometry" />
        </mxCell>
        <mxCell id="-s_Bi2IsMXYIWPhoc3tg-13" value="Post" style="rounded=0;whiteSpace=wrap;html=1;fillColor=#F9EBFF;strokeColor=#9673a6;" parent="1" vertex="1">
          <mxGeometry x="120" y="250" width="110" height="50" as="geometry" />
        </mxCell>
        <mxCell id="-s_Bi2IsMXYIWPhoc3tg-37" style="edgeStyle=orthogonalEdgeStyle;rounded=0;orthogonalLoop=1;jettySize=auto;html=1;exitX=0.5;exitY=1;exitDx=0;exitDy=0;entryX=0.427;entryY=-0.04;entryDx=0;entryDy=0;entryPerimeter=0;" parent="1" source="-s_Bi2IsMXYIWPhoc3tg-21" target="-s_Bi2IsMXYIWPhoc3tg-24" edge="1">
          <mxGeometry relative="1" as="geometry">
            <Array as="points">
              <mxPoint x="175" y="400" />
              <mxPoint x="237" y="400" />
            </Array>
          </mxGeometry>
        </mxCell>
        <mxCell id="-s_Bi2IsMXYIWPhoc3tg-40" style="edgeStyle=orthogonalEdgeStyle;rounded=0;orthogonalLoop=1;jettySize=auto;html=1;exitX=0.5;exitY=1;exitDx=0;exitDy=0;entryX=0.5;entryY=0;entryDx=0;entryDy=0;" parent="1" source="-s_Bi2IsMXYIWPhoc3tg-21" target="-s_Bi2IsMXYIWPhoc3tg-25" edge="1">
          <mxGeometry relative="1" as="geometry" />
        </mxCell>
        <mxCell id="-s_Bi2IsMXYIWPhoc3tg-21" value="Imeges" style="rounded=0;whiteSpace=wrap;html=1;fillColor=#F9EBFF;" parent="1" vertex="1">
          <mxGeometry x="120" y="330" width="110" height="50" as="geometry" />
        </mxCell>
        <mxCell id="-s_Bi2IsMXYIWPhoc3tg-22" value="Name" style="rounded=0;whiteSpace=wrap;html=1;fillColor=#dae8fc;strokeColor=#6c8ebf;" parent="1" vertex="1">
          <mxGeometry x="530" y="340" width="110" height="50" as="geometry" />
        </mxCell>
        <mxCell id="-s_Bi2IsMXYIWPhoc3tg-64" style="edgeStyle=orthogonalEdgeStyle;rounded=0;orthogonalLoop=1;jettySize=auto;html=1;exitX=0.5;exitY=1;exitDx=0;exitDy=0;entryX=0.5;entryY=0;entryDx=0;entryDy=0;fontFamily=Times New Roman;exitPerimeter=0;" parent="1" source="-s_Bi2IsMXYIWPhoc3tg-23" target="-s_Bi2IsMXYIWPhoc3tg-29" edge="1">
          <mxGeometry relative="1" as="geometry" />
        </mxCell>
        <mxCell id="-s_Bi2IsMXYIWPhoc3tg-67" style="edgeStyle=orthogonalEdgeStyle;rounded=0;orthogonalLoop=1;jettySize=auto;html=1;exitX=0.5;exitY=1;exitDx=0;exitDy=0;entryX=0.5;entryY=0;entryDx=0;entryDy=0;fontFamily=Times New Roman;" parent="1" source="-s_Bi2IsMXYIWPhoc3tg-23" target="-s_Bi2IsMXYIWPhoc3tg-22" edge="1">
          <mxGeometry relative="1" as="geometry" />
        </mxCell>
        <mxCell id="-s_Bi2IsMXYIWPhoc3tg-68" style="edgeStyle=orthogonalEdgeStyle;rounded=0;orthogonalLoop=1;jettySize=auto;html=1;exitX=0.5;exitY=1;exitDx=0;exitDy=0;entryX=0.5;entryY=0;entryDx=0;entryDy=0;fontFamily=Times New Roman;" parent="1" source="-s_Bi2IsMXYIWPhoc3tg-23" target="-s_Bi2IsMXYIWPhoc3tg-26" edge="1">
          <mxGeometry relative="1" as="geometry" />
        </mxCell>
        <mxCell id="-s_Bi2IsMXYIWPhoc3tg-23" value="Id info" style="rounded=0;whiteSpace=wrap;html=1;fillColor=#dae8fc;strokeColor=#6c8ebf;" parent="1" vertex="1">
          <mxGeometry x="530" y="250" width="110" height="50" as="geometry" />
        </mxCell>
        <mxCell id="-s_Bi2IsMXYIWPhoc3tg-42" style="edgeStyle=orthogonalEdgeStyle;rounded=0;orthogonalLoop=1;jettySize=auto;html=1;exitX=0.5;exitY=1;exitDx=0;exitDy=0;entryX=0.5;entryY=0;entryDx=0;entryDy=0;" parent="1" source="-s_Bi2IsMXYIWPhoc3tg-24" target="-s_Bi2IsMXYIWPhoc3tg-28" edge="1">
          <mxGeometry relative="1" as="geometry" />
        </mxCell>
        <mxCell id="-s_Bi2IsMXYIWPhoc3tg-24" value="Like" style="rounded=0;whiteSpace=wrap;html=1;fillColor=#F9EBFF;" parent="1" vertex="1">
          <mxGeometry x="190" y="410" width="110" height="50" as="geometry" />
        </mxCell>
        <mxCell id="-s_Bi2IsMXYIWPhoc3tg-41" style="edgeStyle=orthogonalEdgeStyle;rounded=0;orthogonalLoop=1;jettySize=auto;html=1;exitX=0.5;exitY=1;exitDx=0;exitDy=0;entryX=0.5;entryY=0;entryDx=0;entryDy=0;" parent="1" source="-s_Bi2IsMXYIWPhoc3tg-25" target="-s_Bi2IsMXYIWPhoc3tg-27" edge="1">
          <mxGeometry relative="1" as="geometry" />
        </mxCell>
        <mxCell id="-s_Bi2IsMXYIWPhoc3tg-25" value="Comment" style="rounded=0;whiteSpace=wrap;html=1;fillColor=#F9EBFF;" parent="1" vertex="1">
          <mxGeometry x="50" y="410" width="110" height="50" as="geometry" />
        </mxCell>
        <mxCell id="-s_Bi2IsMXYIWPhoc3tg-26" value="Username" style="rounded=0;whiteSpace=wrap;html=1;fillColor=#dae8fc;strokeColor=#6c8ebf;" parent="1" vertex="1">
          <mxGeometry x="670" y="340" width="110" height="50" as="geometry" />
        </mxCell>
        <mxCell id="-s_Bi2IsMXYIWPhoc3tg-27" value="Id comment" style="rounded=0;whiteSpace=wrap;html=1;fillColor=#F9EBFF;" parent="1" vertex="1">
          <mxGeometry x="10" y="490" width="110" height="50" as="geometry" />
        </mxCell>
        <mxCell id="-s_Bi2IsMXYIWPhoc3tg-28" value="Id like" style="rounded=0;whiteSpace=wrap;html=1;fillColor=#F9EBFF;" parent="1" vertex="1">
          <mxGeometry x="230" y="490" width="110" height="50" as="geometry" />
        </mxCell>
        <mxCell id="-s_Bi2IsMXYIWPhoc3tg-29" value="Profile Photo" style="rounded=0;whiteSpace=wrap;html=1;fillColor=#dae8fc;strokeColor=#6c8ebf;" parent="1" vertex="1">
          <mxGeometry x="390" y="340" width="110" height="50" as="geometry" />
        </mxCell>
        <mxCell id="-s_Bi2IsMXYIWPhoc3tg-43" style="edgeStyle=orthogonalEdgeStyle;rounded=0;orthogonalLoop=1;jettySize=auto;html=1;exitX=0.5;exitY=1;exitDx=0;exitDy=0;entryX=0.5;entryY=0;entryDx=0;entryDy=0;" parent="1" source="-s_Bi2IsMXYIWPhoc3tg-30" target="-s_Bi2IsMXYIWPhoc3tg-31" edge="1">
          <mxGeometry relative="1" as="geometry" />
        </mxCell>
        <mxCell id="-s_Bi2IsMXYIWPhoc3tg-30" value="&lt;h2&gt;Instagram&lt;/h2&gt;" style="rounded=0;whiteSpace=wrap;html=1;fontFamily=Times New Roman;fontStyle=0;fillColor=#ffe6cc;strokeColor=#D79385;" parent="1" vertex="1">
          <mxGeometry x="330" y="120" width="110" height="50" as="geometry" />
        </mxCell>
        <mxCell id="-s_Bi2IsMXYIWPhoc3tg-44" style="edgeStyle=orthogonalEdgeStyle;rounded=0;orthogonalLoop=1;jettySize=auto;html=1;exitX=0;exitY=0.5;exitDx=0;exitDy=0;entryX=0.5;entryY=0;entryDx=0;entryDy=0;" parent="1" source="-s_Bi2IsMXYIWPhoc3tg-31" target="-s_Bi2IsMXYIWPhoc3tg-13" edge="1">
          <mxGeometry relative="1" as="geometry" />
        </mxCell>
        <mxCell id="-s_Bi2IsMXYIWPhoc3tg-45" style="edgeStyle=orthogonalEdgeStyle;rounded=0;orthogonalLoop=1;jettySize=auto;html=1;exitX=1;exitY=0.5;exitDx=0;exitDy=0;entryX=0.5;entryY=0;entryDx=0;entryDy=0;" parent="1" source="-s_Bi2IsMXYIWPhoc3tg-31" target="-s_Bi2IsMXYIWPhoc3tg-23" edge="1">
          <mxGeometry relative="1" as="geometry" />
        </mxCell>
        <mxCell id="-s_Bi2IsMXYIWPhoc3tg-31" value="Account" style="rounded=0;whiteSpace=wrap;html=1;fillColor=#d5e8d4;strokeColor=#82b366;" parent="1" vertex="1">
          <mxGeometry x="330" y="200" width="110" height="50" as="geometry" />
        </mxCell>
      </root>
    </mxGraphModel>
  </diagram>
</mxfile>
